<svg width="800" height="508" viewBox="0 0 800 508" fill="none" xmlns="http://www.w3.org/2000/svg">
<g clip-path="url(#clip0)">
<path d="M317.098 279.648H106.695V142.545C106.695 84.3959 153.854 37.3433 211.897 37.3433C270.046 37.3433 317.098 84.5026 317.098 142.545V279.648Z" fill="#C5D2D8"/>
<path d="M308.456 271.859H115.444V144.252C115.444 91.011 158.656 45.6655 211.897 45.6655C265.137 45.6655 308.349 91.011 308.349 144.252V271.859H308.456Z" fill="#F5FCFF"/>
<g opacity="0.16">
<path opacity="0.16" d="M308.456 244.865C275.38 209.229 228.114 187.784 191.838 154.495C177.114 140.944 163.884 124.62 159.936 104.988C157.162 91.1177 159.189 76.7138 162.817 63.0568C163.137 61.6698 163.564 60.2828 163.99 59.0024C134.969 76.2871 115.444 108.509 115.444 144.359V271.966H308.456V244.865Z" fill="#C5D2D8"/>
</g>
<path d="M122.273 108.296H301.627C301.307 107.549 301.093 106.909 300.773 106.162H123.126C122.806 106.909 122.486 107.655 122.273 108.296Z" fill="#C5D2D8"/>
<path d="M258.522 271.859H260.656V59.4292C259.909 59.0024 259.269 58.5757 258.522 58.1489V271.859Z" fill="#C5D2D8"/>
<path d="M208.589 271.859H215.204V45.6655C214.137 45.6655 212.963 45.5588 211.897 45.5588C210.83 45.5588 209.656 45.5588 208.589 45.6655V271.859Z" fill="#C5D2D8"/>
<path d="M163.244 271.859H165.378V58.0422C164.631 58.469 163.99 58.8957 163.244 59.3225V271.859Z" fill="#C5D2D8"/>
<path d="M308.456 160.79H115.444V167.405H308.456V160.79Z" fill="#C5D2D8"/>
<path d="M308.456 217.658H115.444V219.792H308.456V217.658Z" fill="#C5D2D8"/>
<path d="M693.305 279.648H482.795V142.545C482.795 84.3959 529.955 37.3433 587.997 37.3433C646.146 37.3433 693.198 84.5026 693.198 142.545V279.648H693.305Z" fill="#C5D2D8"/>
<path d="M684.555 271.859H491.544V144.252C491.544 91.011 534.756 45.6655 587.997 45.6655C641.237 45.6655 684.449 91.011 684.449 144.252V271.859H684.555Z" fill="#F5FCFF"/>
<g opacity="0.16">
<path opacity="0.16" d="M684.555 244.865C651.48 209.229 604.214 187.784 567.938 154.495C553.214 140.944 539.984 124.62 536.036 104.988C533.262 91.1177 535.289 76.7138 538.917 63.0568C539.237 61.6698 539.664 60.2828 540.091 59.0024C511.07 76.2871 491.544 108.509 491.544 144.359V271.966H684.555V244.865Z" fill="#C5D2D8"/>
</g>
<path d="M498.373 108.296H677.727C677.407 107.549 677.194 106.909 676.874 106.162H499.227C498.906 106.909 498.586 107.655 498.373 108.296Z" fill="#C5D2D8"/>
<path d="M634.623 271.859H636.756V59.4292C636.009 59.0024 635.369 58.5757 634.623 58.1489V271.859Z" fill="#C5D2D8"/>
<path d="M584.796 271.859H591.411V45.6655C590.344 45.6655 589.17 45.5588 588.103 45.5588C587.036 45.5588 585.863 45.5588 584.796 45.6655V271.859Z" fill="#C5D2D8"/>
<path d="M539.451 271.859H541.585V58.0422C540.838 58.469 540.197 58.8957 539.451 59.3225V271.859Z" fill="#C5D2D8"/>
<path d="M684.555 160.79H491.544V167.405H684.555V160.79Z" fill="#C5D2D8"/>
<path d="M684.555 217.658H491.544V219.792H684.555V217.658Z" fill="#C5D2D8"/>
<path opacity="0.22" d="M109.363 507.122C132.462 507.122 151.187 504.447 151.187 501.147C151.187 497.847 132.462 495.172 109.363 495.172C86.2635 495.172 67.538 497.847 67.538 501.147C67.538 504.447 86.2635 507.122 109.363 507.122Z" fill="#A6AAC7"/>
<path opacity="0.22" d="M276.447 495.172C326.063 495.172 366.284 491.542 366.284 487.063C366.284 482.585 326.063 478.955 276.447 478.955C226.831 478.955 186.61 482.585 186.61 487.063C186.61 491.542 226.831 495.172 276.447 495.172Z" fill="#A6AAC7"/>
<path opacity="0.22" d="M548.519 487.17C598.135 487.17 638.357 483.54 638.357 479.061C638.357 474.583 598.135 470.953 548.519 470.953C498.904 470.953 458.682 474.583 458.682 479.061C458.682 483.54 498.904 487.17 548.519 487.17Z" fill="#A6AAC7"/>
<path d="M800 442.358H0V456.442H800V442.358Z" fill="#CFDCE2"/>
<path d="M59.856 367.245C61.4564 355.402 71.4857 347.506 82.6887 345.159C95.4921 342.385 105.735 351.454 112.563 361.27C126.647 381.542 126.754 405.335 126.007 428.915C126.007 430.302 128.141 430.302 128.141 428.915C129.101 401.601 127.927 373.433 108.189 352.307C99.9733 343.558 88.557 340.571 77.1406 344.519C67.0045 347.933 59.2158 356.682 57.8288 367.351C57.5087 368.632 59.6426 368.632 59.856 367.245Z" fill="#8C8E38"/>
<path d="M186.61 391.144C192.051 388.05 198.346 386.557 204.641 386.557C205.388 383.249 205.708 379.835 205.601 376.421C203.361 376.314 201.12 376.527 198.88 376.741C193.865 377.381 188.85 378.768 183.942 379.941C182.555 380.262 180.848 380.475 179.995 379.301C179.248 378.128 179.995 376.527 180.955 375.46C183.409 372.686 186.716 370.872 190.024 369.379C194.292 367.458 198.88 366.071 203.468 365.324C202.294 362.123 200.693 359.136 198.56 356.362C190.131 357.002 182.022 360.203 173.913 362.657C172.313 363.084 170.392 363.51 169.218 362.337C167.831 360.95 168.685 358.496 169.965 356.895C172.846 353.268 177.007 350.92 181.275 349.213C183.195 348.466 185.223 347.72 187.25 347.079C185.863 346.439 184.476 345.906 182.982 345.479C177.007 343.879 170.605 345.372 165.377 348.36C161.536 350.6 156.202 356.469 158.229 361.27C150.547 357.962 142.971 356.895 136.036 362.017C132.622 364.577 129.848 367.885 128.034 371.726C132.089 369.059 136.783 367.245 141.691 366.818C144.145 366.605 146.812 366.711 149.053 367.778C149.587 368.098 150.227 368.418 150.44 368.952C151.08 370.339 149.48 371.619 148.093 372.259C142.331 375.033 136.25 376.741 130.808 380.048C129.101 381.115 127.394 382.395 125.9 383.889C126.22 388.05 127.714 392.211 129.955 395.732C131.662 394.239 133.476 392.852 135.396 391.465C140.411 387.944 145.959 385.276 152.041 384.423C152.894 384.316 153.961 384.316 154.388 384.956C154.815 385.596 154.601 386.343 154.388 386.983C153.534 388.904 152.041 390.398 150.44 391.785C146.706 395.092 142.438 397.76 138.81 401.174C138.277 401.707 137.743 402.241 137.21 402.774C137.743 403.094 138.17 403.414 138.704 403.734C141.798 405.442 145.105 406.402 148.52 407.362C148.84 407.042 149.16 406.615 149.373 406.295C152.681 402.668 157.055 399.573 161.963 399.573C163.457 399.573 165.377 400.214 165.591 401.707C165.804 402.881 164.951 403.841 164.204 404.695C162.39 406.615 160.363 408.429 158.549 410.456C161.003 411.31 163.35 412.484 165.697 413.657C166.871 412.59 168.258 411.523 169.645 410.776C170.926 410.136 172.526 409.603 173.7 410.456C174.553 411.096 174.767 412.163 174.66 413.23C174.553 415.151 173.593 416.751 172.419 418.245C174.233 419.952 175.62 421.873 176.367 424.22C181.275 420.592 186.076 416.645 190.344 412.163C188.744 411.737 187.143 411.417 185.756 410.99C184.369 410.563 182.342 409.603 182.982 407.682C183.622 405.868 186.396 405.868 187.997 405.762C190.451 405.548 192.905 405.762 195.359 406.189C197.386 403.414 199.2 400.534 200.693 397.546C201.12 396.799 201.44 396.052 201.76 395.199C199.093 394.985 196.319 394.985 193.545 395.092C191.091 395.199 188.637 395.306 186.396 394.452C185.756 394.239 185.116 393.812 184.903 393.065C184.796 392.425 185.756 391.678 186.61 391.144Z" fill="#ABC138"/>
<path d="M100.614 432.436C99.5466 405.015 101.254 377.914 120.459 356.682C124.62 352.094 129.741 348.573 136.143 348.04C143.398 347.506 149.587 352.414 154.068 357.536C163.137 367.885 167.085 382.396 170.285 395.412C170.606 396.799 172.633 396.159 172.313 394.879C168.898 380.688 164.31 366.071 154.388 354.868C146.066 345.372 133.796 343.239 123.553 350.921C113.204 358.709 106.162 371.619 102.427 383.783C97.5194 399.467 97.8394 416.431 98.4796 432.542C98.4796 433.823 100.614 433.823 100.614 432.436Z" fill="#8C8E38"/>
<path d="M87.1699 370.552C82.7954 362.23 73.7264 360.843 65.2974 360.096C56.4417 359.243 48.0128 361.697 41.5044 367.672C35.2094 373.433 31.2617 381.329 29.2345 389.651C28.1675 394.025 27.634 398.613 28.1675 403.094C29.3412 414.297 36.383 423.793 43.1048 432.756C43.9584 427.421 46.6258 422.513 50.4668 418.779C46.7325 416.218 43.745 412.697 41.6111 408.749C40.5442 406.615 40.0107 403.414 42.1446 402.348C43.2115 401.814 44.5986 402.134 45.7722 402.561C49.3999 403.841 52.8141 406.082 55.4815 408.856C55.8016 409.176 56.1216 409.603 56.6551 409.603C57.0819 409.603 57.5087 409.283 57.8288 408.963C60.4961 406.509 63.2702 404.161 65.9376 401.707C62.6301 399.147 59.5359 396.373 56.6551 393.278C55.5882 392.105 54.5212 390.824 53.9877 389.331C53.561 387.837 53.7744 385.916 55.0547 384.956C56.9752 383.356 59.9627 384.743 61.9899 386.13C65.1907 388.477 68.1782 391.038 70.9523 394.025C74.5799 392.532 77.7808 389.757 79.808 386.343C75.0067 383.996 70.9523 380.262 68.1782 375.674C67.4313 374.287 66.6845 372.58 67.6447 371.299C68.2849 370.446 69.3518 370.126 70.4188 370.126C75.5402 369.912 79.5946 374.5 82.0486 378.981C83.649 376.954 85.2494 375.034 86.8499 373.006C87.0633 372.686 87.3833 372.366 87.3833 371.939C87.5967 371.513 87.3833 370.979 87.1699 370.552Z" fill="#ABC138"/>
<path d="M144.572 389.331C150.654 387.73 157.055 387.837 163.137 389.437C164.631 386.343 165.804 383.142 166.551 379.835C164.417 379.195 162.177 378.768 160.043 378.448C155.028 377.808 149.907 377.914 144.785 377.701C143.398 377.701 141.691 377.381 141.158 376.101C140.731 374.82 141.905 373.433 143.078 372.686C146.172 370.659 149.8 369.699 153.428 369.165C158.016 368.418 162.817 368.205 167.405 368.632C167.085 365.218 166.231 361.91 164.951 358.816C156.628 357.215 147.986 358.389 139.451 358.709C137.85 358.816 135.823 358.602 135.076 357.215C134.009 355.508 135.61 353.374 137.21 352.201C140.944 349.427 145.532 348.253 150.12 347.72C152.254 347.506 154.281 347.293 156.415 347.186C155.241 346.226 153.961 345.372 152.681 344.519C147.346 341.425 140.731 341.211 134.863 342.812C130.595 343.985 123.98 348.36 124.62 353.481C118.005 348.36 110.963 345.372 102.961 348.573C99.0131 350.174 95.4921 352.734 92.8247 355.935C97.4126 354.335 102.427 353.801 107.229 354.655C109.683 355.082 112.243 355.828 114.164 357.429C114.591 357.856 115.124 358.282 115.231 358.923C115.444 360.416 113.63 361.27 112.137 361.59C105.948 362.764 99.5465 362.977 93.4649 364.791C91.5444 365.324 89.5172 366.178 87.7034 367.245C86.9565 371.406 87.3833 375.674 88.6636 379.728C90.6908 378.768 92.8247 377.808 94.9586 376.954C100.613 374.82 106.802 373.647 112.777 374.393C113.63 374.5 114.591 374.713 114.911 375.567C115.124 376.207 114.804 376.954 114.377 377.594C113.097 379.301 111.176 380.368 109.362 381.329C104.881 383.569 100.08 385.17 95.7055 387.517C95.0653 387.837 94.4252 388.264 93.6783 388.691C94.1051 389.117 94.5319 389.544 94.9586 389.971C97.5193 392.425 100.507 394.239 103.601 395.946C104.028 395.732 104.348 395.412 104.775 395.092C108.936 392.425 113.95 390.504 118.645 391.785C120.139 392.211 121.739 393.172 121.632 394.772C121.526 395.946 120.459 396.693 119.499 397.333C117.258 398.72 114.804 400 112.67 401.494C114.804 402.988 116.831 404.588 118.752 406.402C120.245 405.655 121.739 405.015 123.34 404.695C124.727 404.375 126.434 404.268 127.287 405.442C127.927 406.295 127.821 407.362 127.501 408.429C126.861 410.243 125.58 411.523 124.086 412.697C125.367 414.724 126.327 417.071 126.327 419.525C131.982 417.285 137.637 414.617 142.865 411.31C141.478 410.456 139.984 409.709 138.81 408.963C137.53 408.216 135.93 406.722 136.997 405.122C138.064 403.521 140.731 404.268 142.331 404.481C144.785 404.908 147.026 405.762 149.373 406.722C152.041 404.588 154.495 402.241 156.735 399.68C157.269 399.04 157.802 398.4 158.336 397.76C155.775 396.799 153.108 396.159 150.44 395.626C148.093 395.092 145.639 394.665 143.718 393.172C143.185 392.745 142.651 392.211 142.651 391.465C142.545 390.078 143.612 389.651 144.572 389.331Z" fill="#9DAD2D"/>
<g opacity="0.15">
<path opacity="0.15" d="M157.162 398.613C157.055 398.08 156.949 397.44 156.842 396.906C154.708 396.266 152.574 395.732 150.333 395.199C147.986 394.665 145.532 394.239 143.612 392.745C143.078 392.318 142.545 391.785 142.545 391.038C142.651 390.078 143.718 389.544 144.679 389.331C147.453 388.584 150.333 388.264 153.214 388.157C150.547 383.996 147.133 380.582 143.292 377.487C142.438 377.274 141.691 376.847 141.371 376.1C141.371 376.1 141.371 376.1 141.371 375.994C134.863 371.086 127.714 366.711 122.166 360.95C119.925 358.602 117.791 355.935 116.618 352.841C115.978 351.24 115.551 349.64 115.337 347.933C111.496 346.759 107.549 346.653 103.281 348.36C99.3332 349.96 95.8122 352.521 93.1448 355.722C97.7327 354.121 102.747 353.588 107.549 354.441C110.003 354.868 112.563 355.615 114.484 357.215C114.911 357.642 115.444 358.069 115.551 358.709C115.764 360.203 113.95 361.056 112.457 361.377C106.268 362.55 99.8666 362.764 93.785 364.577C91.8645 365.111 89.8373 365.964 88.0235 367.031C87.2766 371.192 87.7034 375.46 88.9837 379.515C91.0109 378.554 93.1448 377.594 95.2787 376.741C100.934 374.607 107.122 373.433 113.097 374.18C113.95 374.287 114.911 374.5 115.231 375.354C115.444 375.994 115.124 376.741 114.697 377.381C113.417 379.088 111.496 380.155 109.683 381.115C105.201 383.356 100.4 384.956 96.0256 387.303C95.3854 387.624 94.7453 388.05 93.9984 388.477C94.4252 388.904 94.852 389.331 95.2787 389.757C97.8394 392.211 100.827 394.025 103.921 395.732C104.348 395.519 104.668 395.199 105.095 394.879C109.256 392.211 114.27 390.291 118.965 391.571C120.459 391.998 122.059 392.958 121.953 394.559C121.846 395.732 120.779 396.479 119.819 397.119C117.578 398.506 115.124 399.787 112.99 401.281C115.124 402.774 117.151 404.375 119.072 406.189C120.566 405.442 122.059 404.801 123.66 404.481C125.047 404.161 126.754 404.055 127.607 405.228C128.248 406.082 128.141 407.149 127.821 408.216C127.181 410.03 125.9 411.31 124.407 412.484C125.687 414.511 126.647 416.858 126.647 419.312C132.302 417.071 137.957 414.404 143.185 411.096C141.798 410.243 140.304 409.496 139.13 408.749C137.85 408.002 136.25 406.509 137.317 404.908C138.384 403.308 141.051 404.055 142.651 404.268C145.105 404.695 147.346 405.548 149.693 406.509C152.361 404.375 154.815 402.027 157.055 399.467C156.735 399.147 156.949 398.827 157.162 398.613Z" fill="#9DAD2D"/>
</g>
<path d="M91.331 439.051C86.6364 421.873 82.4753 404.481 82.4753 386.663C82.582 375.247 83.8623 362.87 89.6239 352.841C96.5591 340.784 112.457 340.358 121.419 350.6C130.061 360.523 130.061 376.421 131.235 388.797C131.342 390.184 133.476 390.184 133.369 388.797C132.089 376.101 131.982 360.523 123.66 349.96C116.084 340.358 101.574 337.797 92.1846 346.333C83.0088 354.655 81.3017 370.019 80.6615 381.649C79.5945 401.387 84.1824 420.913 89.4105 439.798C89.6239 440.864 91.6511 440.331 91.331 439.051Z" fill="#717723"/>
<path d="M112.563 428.168H111.496H75.4334L86.5297 500.72H111.496H112.563H137.53L148.626 428.168H112.563Z" fill="#E37263"/>
<g opacity="0.23">
<path opacity="0.23" d="M82.1553 471.913L139.771 428.168H112.99L79.3812 453.775L82.1553 471.913Z" fill="white"/>
<path opacity="0.23" d="M85.3561 493.038L145.746 447.159L146.919 439.477L84.3958 486.957L85.3561 493.038Z" fill="white"/>
<path opacity="0.23" d="M143.291 463.484L94.2117 500.72H111.496H112.563H120.992L139.771 486.423L143.291 463.484Z" fill="white"/>
</g>
<g opacity="0.24">
<path opacity="0.24" d="M137.85 498.693C136.143 496.666 134.222 494.746 132.302 492.932C125.9 487.277 118.538 482.796 111.496 477.994C105.308 473.833 99.2264 469.245 95.7055 462.737C93.785 459.109 92.718 455.055 91.9712 451.107C90.5841 443.532 90.3707 435.85 91.2243 428.275H75.4334L86.5297 500.827H111.496H112.563H137.53L137.85 498.693Z" fill="#E37263"/>
</g>
<path d="M150.227 441.505H74.0464L71.9125 425.18H152.361L150.227 441.505Z" fill="#A02A1B"/>
<g opacity="0.15">
<path opacity="0.15" d="M198.88 376.741C193.865 377.381 188.85 378.768 183.942 379.942C183.195 380.155 182.235 380.262 181.488 380.155C177.754 388.264 171.779 395.306 168.472 403.735C167.191 406.935 166.338 410.35 166.018 413.871C167.191 412.804 168.472 411.95 169.859 411.203C171.139 410.563 172.739 410.03 173.913 410.883C174.767 411.523 174.98 412.59 174.873 413.657C174.767 415.578 173.806 417.178 172.633 418.672C174.446 420.379 175.834 422.3 176.58 424.647C181.488 421.019 186.29 417.072 190.557 412.59C188.957 412.164 187.357 411.843 185.97 411.417C184.583 410.99 182.555 410.03 183.195 408.109C183.836 406.295 186.61 406.295 188.21 406.189C190.664 405.975 193.118 406.189 195.572 406.615C197.599 403.841 199.413 400.961 200.907 397.973C201.334 397.226 201.654 396.479 201.974 395.626C199.306 395.412 196.532 395.412 193.758 395.519C191.304 395.626 188.85 395.732 186.61 394.879C185.97 394.665 185.329 394.239 185.116 393.492C184.903 392.532 185.863 391.785 186.716 391.251C192.158 388.157 198.453 386.663 204.748 386.663C205.495 383.356 205.815 379.941 205.708 376.527C203.361 376.314 201.12 376.421 198.88 376.741Z" fill="white"/>
</g>
<g opacity="0.15">
<path opacity="0.15" d="M190.024 369.379C194.292 367.458 198.88 366.071 203.468 365.324C202.294 362.123 200.694 359.136 198.56 356.362C193.972 356.682 189.491 357.856 185.009 359.136C185.436 363.724 185.116 368.312 183.942 372.686C185.863 371.406 187.997 370.339 190.024 369.379Z" fill="white"/>
</g>
<g opacity="0.15">
<path opacity="0.15" d="M181.488 345.159C182.022 346.333 182.449 347.506 182.875 348.68C184.369 348.146 185.863 347.613 187.357 347.079C185.97 346.439 184.583 345.906 183.089 345.479C182.555 345.372 182.022 345.266 181.488 345.159Z" fill="white"/>
</g>
<path d="M504.988 349.96H517.471L490.691 474.26C490.478 475.114 489.624 475.754 488.77 475.54L488.344 475.434C487.49 475.22 486.85 474.367 486.957 473.513L504.988 349.96Z" fill="white"/>
<path d="M580.315 349.96H567.831L594.612 474.26C594.825 475.114 595.679 475.754 596.532 475.54L596.959 475.434C597.813 475.22 598.453 474.367 598.346 473.513L580.315 349.96Z" fill="white"/>
<path d="M618.191 354.015L640.598 356.469L641.665 390.824C641.665 390.824 624.06 392.532 628.541 368.418C624.486 366.711 615.311 363.084 615.311 363.084L618.191 354.015Z" fill="#E37263"/>
<path d="M641.131 392.852C640.171 392.852 639.317 391.998 639.317 391.038L639.21 356.682C639.21 355.722 640.064 354.868 641.024 354.868C641.985 354.868 642.838 355.722 642.838 356.682L642.945 391.038C642.945 391.998 642.198 392.852 641.131 392.852Z" fill="#E37263"/>
<path d="M589.171 359.883H496.132C490.477 359.883 485.89 355.295 485.89 349.64V344.839C485.89 339.184 490.477 334.596 496.132 334.596H589.171C594.825 334.596 599.413 339.184 599.413 344.839V349.64C599.307 355.295 594.825 359.883 589.171 359.883Z" fill="#E37263"/>
<path d="M515.871 317.525L504.988 340.038L583.089 345.799L576.901 317.418" fill="#E37263"/>
<path d="M578.928 271.753C587.25 267.165 589.704 257.029 587.57 248.386C586.076 242.411 582.235 237.077 581.168 231.102C580.422 226.941 580.955 219.579 581.168 215.311C581.489 210.083 581.382 204.535 580.528 199.307C578.714 188.53 571.566 178.714 561.11 174.767C557.269 173.273 553.107 172.739 549.053 172.953C544.678 173.166 539.13 173.7 535.183 175.514C533.262 176.367 531.448 177.967 530.808 179.995C523.98 179.781 520.672 186.396 518.538 191.945C515.657 199.52 515.124 207.842 515.764 215.844C516.191 220.966 517.044 229.501 515.231 234.303C514.377 236.65 512.883 238.677 511.71 240.811C508.509 246.466 506.802 253.188 508.189 259.589C509.576 265.991 514.27 271.753 520.672 273.246" fill="#A02A1B"/>
<path d="M583.942 286.903H511.71V270.899C511.71 260.656 520.032 252.441 530.168 252.441H565.377C575.62 252.441 583.836 260.763 583.836 270.899V286.903H583.942Z" fill="#E37263"/>
<path d="M549.907 259.483H547.133C544.038 259.483 541.584 256.922 541.584 253.935V239.317H555.562V253.935C555.562 257.029 553.001 259.483 549.907 259.483Z" fill="#FCA596"/>
<path d="M242.625 349.96H255.108L228.328 474.153C228.114 475.007 227.261 475.647 226.407 475.434L225.98 475.327C225.127 475.114 224.487 474.26 224.593 473.406L242.625 349.96Z" fill="white"/>
<path d="M317.951 349.96H305.468L332.248 474.26C332.462 475.114 333.315 475.754 334.169 475.54L334.596 475.434C335.449 475.22 336.089 474.367 335.983 473.513L317.951 349.96Z" fill="white"/>
<path d="M315.498 229.715H239.317V227.047C239.317 219.045 245.826 212.643 253.721 212.643H300.987C308.989 212.643 315.391 219.152 315.391 227.047V229.715H315.498Z" fill="#486D7F"/>
<path d="M279.221 217.338H275.7C272.713 217.338 270.259 214.884 270.259 211.897V197.706H284.663V211.897C284.663 214.884 282.209 217.338 279.221 217.338Z" fill="#FCA596"/>
<path d="M482.155 315.711H459.856V247.639C459.856 246.146 461.03 244.865 462.63 244.865H479.381C480.875 244.865 482.155 246.039 482.155 247.639V315.711Z" fill="#E37263"/>
<path d="M475.54 257.776C475.54 255.215 473.513 253.188 470.952 253.188C468.392 253.188 466.364 255.215 466.364 257.776C466.364 260.336 468.392 262.363 470.952 262.363C473.513 262.257 475.54 260.23 475.54 257.776Z" fill="#E37263"/>
<path d="M459.856 288.184L482.155 284.556V268.552L459.856 272.179V288.184Z" fill="#A02A1B"/>
<path d="M459.856 298.96L482.155 295.332V291.918L459.856 295.546V298.96Z" fill="#A02A1B"/>
<path d="M193.225 315.711H170.926V247.639C170.926 246.146 172.099 244.865 173.7 244.865H190.451C191.945 244.865 193.225 246.039 193.225 247.639V315.711Z" fill="#E37263"/>
<path d="M168.365 315.711H151.187V258.949C151.187 257.455 152.361 256.175 153.961 256.175H165.697C167.191 256.175 168.472 257.349 168.472 258.949V315.711H168.365Z" fill="#E37263"/>
<path d="M186.61 257.776C186.61 255.215 184.583 253.188 182.022 253.188C179.461 253.188 177.434 255.215 177.434 257.776C177.434 260.336 179.461 262.363 182.022 262.363C184.583 262.257 186.61 260.23 186.61 257.776Z" fill="#A02A1B"/>
<path d="M170.926 288.184L193.225 284.556V268.552L170.926 272.179V288.184Z" fill="#A02A1B"/>
<path d="M170.926 298.96L193.225 295.332V291.918L170.926 295.546V298.96Z" fill="#A02A1B"/>
<path d="M163.137 265.778C163.137 263.964 161.643 262.363 159.723 262.363C157.909 262.363 156.308 263.857 156.308 265.778C156.308 267.592 157.802 269.192 159.723 269.192C161.643 269.192 163.137 267.698 163.137 265.778Z" fill="#A02A1B"/>
<path d="M168.365 296.399H151.187V299.28H168.365V296.399Z" fill="#E37263"/>
<path d="M168.365 302.801H151.187V310.483H168.365V302.801Z" fill="#E37263"/>
<path d="M324.353 359.883H236.116C229.181 359.883 223.526 354.228 223.526 347.293C223.526 340.358 229.181 334.703 236.116 334.703H324.353C331.288 334.703 336.943 340.358 336.943 347.293C337.05 354.228 331.395 359.883 324.353 359.883Z" fill="#E37263"/>
<path d="M318.378 319.339H238.357V335.236H318.378V319.339Z" fill="#486D7F"/>
<path d="M318.272 310.163H239.851V314.964H318.272V310.163Z" fill="#CFDCE2"/>
<path d="M334.916 233.022C335.663 234.729 353.054 297.786 353.054 297.786L339.29 297.359L317.631 241.878" fill="#486D7F"/>
<path d="M337.69 307.602H354.228C355.935 306.215 356.895 304.401 356.895 302.481C356.895 298.213 351.987 294.692 345.906 294.692C339.824 294.692 334.916 298.213 334.916 302.481C334.916 304.401 335.983 306.215 337.69 307.602Z" fill="#FCA596"/>
<path d="M529.955 259.589C527.074 259.483 524.193 259.483 521.419 259.376C519.179 259.376 517.045 259.269 514.911 259.803C510.323 260.87 508.082 264.284 506.162 268.232C501.894 277.301 498.266 287.01 495.385 296.613C494.212 300.56 493.145 305.042 494.532 309.096C495.812 312.937 500.187 314.004 503.814 314.324C508.829 314.857 513.95 314.857 519.072 314.324" fill="#E37263"/>
<path d="M330.115 304.721H227.901C220.966 304.721 215.417 299.173 215.417 292.238V231.315C215.417 224.38 220.966 218.832 227.901 218.832H330.115C337.05 218.832 342.598 224.38 342.598 231.315V292.238C342.598 299.067 337.05 304.721 330.115 304.721Z" fill="#A8DCE7"/>
<path d="M561.43 259.589C564.31 259.483 567.191 259.483 569.965 259.376C572.206 259.376 574.34 259.269 576.474 259.803C581.062 260.87 583.302 264.284 585.223 268.232C589.491 277.301 593.118 287.01 595.999 296.613C597.173 300.56 598.24 305.042 596.853 309.096C595.572 312.937 591.198 314.004 587.57 314.324C582.555 314.857 577.434 314.857 572.313 314.324" fill="#E37263"/>
<path d="M542.011 467.325L572.526 349.854L544.358 350.814L526.754 467.325H542.011Z" fill="#172328"/>
<path d="M624.807 353.908L622.993 366.391L510.536 353.161C502.107 352.201 496.559 343.985 498.586 335.876C500.507 328.301 508.189 323.713 515.764 325.634L624.807 353.908Z" fill="#23353F"/>
<path d="M698.96 315.604H141.158V326.381H698.96V315.604Z" fill="#1C2537"/>
<path d="M616.057 320.086H599.52L634.836 484.289C635.156 485.463 636.223 486.21 637.396 485.997L637.93 485.89C639.104 485.676 639.85 484.503 639.744 483.329L616.057 320.086Z" fill="#1C2537"/>
<path d="M224.166 320.086H240.704L205.388 484.289C205.068 485.463 204.001 486.21 202.828 485.997L202.294 485.89C201.12 485.676 200.374 484.503 200.48 483.329L224.166 320.086Z" fill="#1C2537"/>
<path d="M252.547 468.392L266.951 469.032L271.752 341.531C271.859 333.316 265.244 326.594 257.029 326.487C248.386 326.487 241.558 333.849 242.305 342.491L252.547 468.392Z" fill="#23353F"/>
<path d="M302.694 468.392L288.29 469.032L283.489 341.531C283.382 333.316 289.997 326.594 298.213 326.487C306.855 326.487 313.684 333.849 312.937 342.491L302.694 468.392Z" fill="#23353F"/>
<path d="M251.694 475.54L248.28 464.231C247.533 461.777 249.347 459.216 252.014 459.216H266.738C269.298 459.216 271.112 461.67 270.472 464.124L266.845 477.568" fill="#D8E6EA"/>
<path d="M303.441 475.54L306.855 464.231C307.602 461.777 305.788 459.216 303.121 459.216H288.397C285.836 459.216 284.022 461.67 284.662 464.124L288.29 477.568" fill="#D8E6EA"/>
<path d="M273.353 486.743C273.353 486.317 273.46 485.89 273.46 485.463C273.46 477.674 267.165 471.379 259.376 471.379C251.587 471.379 245.292 477.674 245.292 485.463C245.292 485.89 245.292 486.317 245.399 486.743H273.353Z" fill="white"/>
<path d="M272.073 489.731H246.572C244.759 489.731 243.158 488.237 243.158 486.317C243.158 484.503 244.652 482.902 246.572 482.902H272.073C273.886 482.902 275.487 484.396 275.487 486.317C275.487 488.237 273.993 489.731 272.073 489.731Z" fill="#D8E6EA"/>
<path d="M281.889 486.743C281.889 486.317 281.782 485.89 281.782 485.463C281.782 477.674 288.077 471.379 295.866 471.379C303.654 471.379 309.949 477.674 309.949 485.463C309.949 485.89 309.949 486.317 309.843 486.743H281.889Z" fill="white"/>
<path d="M283.062 489.731H308.562C310.376 489.731 311.976 488.237 311.976 486.317C311.976 484.503 310.483 482.902 308.562 482.902H283.062C281.248 482.902 279.648 484.396 279.648 486.317C279.755 488.237 281.248 489.731 283.062 489.731Z" fill="#D8E6EA"/>
<g opacity="0.13">
<path opacity="0.13" d="M270.259 209.016C274.953 209.869 279.861 209.869 284.663 209.123V197.706H270.259V209.016Z" fill="#FCA596"/>
</g>
<path d="M246.039 178.501C244.225 172.419 242.945 166.124 242.411 159.829C242.091 156.522 242.091 153.108 243.478 150.227C244.865 147.346 248.173 145.212 250.947 146.279C251.267 142.438 253.614 139.237 256.175 136.57C259.803 132.729 264.177 129.635 269.085 128.354C273.993 127.074 279.541 127.928 283.489 131.235C289.677 126.754 298.106 127.821 304.828 131.342C309.523 133.796 312.297 137.743 311.977 143.612C311.763 146.813 310.696 149.907 309.309 152.681C314.751 155.348 318.058 162.07 317.631 168.472C317.205 174.873 313.47 180.742 308.456 184.156C308.242 184.263 308.029 184.369 307.815 184.369C307.602 184.263 307.602 183.836 307.815 183.836" fill="#A02A1B"/>
<path d="M277.514 204.748C263.857 204.748 252.441 193.865 251.48 179.781L250.734 168.792C249.667 153.321 261.616 140.197 276.767 140.197H278.261C293.305 140.197 305.255 153.321 304.294 168.792L303.548 179.781C302.587 193.758 291.171 204.748 277.514 204.748Z" fill="#FCA596"/>
<path d="M310.677 189.456C314.444 185.808 315.106 180.38 312.155 177.332C309.204 174.284 303.757 174.77 299.989 178.418C296.222 182.066 295.56 187.494 298.511 190.542C301.462 193.59 306.909 193.104 310.677 189.456Z" fill="#FCA596"/>
<path d="M302.587 189.704C302.054 185.116 305.041 181.168 309.629 180.528C310.056 180.422 309.949 179.781 309.416 179.781C304.508 180.528 301.307 184.796 301.84 189.704C301.84 190.131 302.587 190.131 302.587 189.704Z" fill="#C1756B"/>
<path d="M304.935 182.449C305.682 184.156 305.255 186.076 303.868 187.357C303.548 187.677 304.081 188.21 304.401 187.89C306.002 186.396 306.428 184.049 305.575 182.129C305.361 181.595 304.721 182.022 304.935 182.449Z" fill="#C1756B"/>
<path d="M275.807 166.444C276.554 170.819 277.301 175.087 278.047 179.461C278.261 179.248 278.474 179.035 278.688 178.821C276.874 178.181 275.06 177.647 273.353 177.007C272.926 176.901 272.606 177.327 272.713 177.647C273.246 179.995 274.206 182.129 275.38 184.156C275.7 184.796 276.66 184.263 276.34 183.622C275.167 181.595 274.313 179.568 273.78 177.327C273.566 177.541 273.353 177.754 273.139 177.968C274.953 178.608 276.767 179.141 278.474 179.781C278.901 179.888 279.221 179.461 279.114 179.141C278.368 174.767 277.621 170.499 276.874 166.124C276.767 165.484 275.7 165.804 275.807 166.444Z" fill="#C1756B"/>
<path d="M274.313 187.677C277.621 190.558 282.849 188.957 283.596 184.476C283.702 183.836 282.635 183.516 282.529 184.156C281.888 187.784 277.941 189.384 275.06 186.93C274.526 186.503 273.78 187.25 274.313 187.677Z" fill="#C1756B"/>
<path d="M265.031 173.486C265.137 175.3 265.244 177.221 265.351 179.034C265.457 179.888 266.738 179.888 266.738 179.034C266.631 177.221 266.524 175.3 266.418 173.486C266.311 172.633 264.924 172.633 265.031 173.486Z" fill="#C1756B"/>
<path d="M289.891 173.486C289.784 175.3 289.677 177.221 289.57 179.034C289.464 179.888 288.184 179.888 288.184 179.034C288.29 177.221 288.397 175.3 288.504 173.486C288.61 172.633 289.997 172.633 289.891 173.486Z" fill="#C1756B"/>
<path d="M269.298 163.457C269.725 164.844 267.911 166.765 265.137 167.511C262.363 168.258 259.803 167.832 259.376 166.444C258.949 165.057 260.763 163.137 263.537 162.39C266.311 161.537 268.872 161.963 269.298 163.457Z" fill="#4E4E7C"/>
<path d="M284.129 163.457C283.702 164.844 285.516 166.765 288.29 167.511C291.064 168.365 293.625 167.832 294.052 166.444C294.479 165.057 292.665 163.137 289.891 162.39C287.116 161.537 284.556 161.963 284.129 163.457Z" fill="#4E4E7C"/>
<g opacity="0.13">
<path opacity="0.13" d="M292.985 143.398C291.918 141.691 288.824 141.371 287.01 141.158C282.635 140.624 278.261 141.264 273.993 142.118C270.045 142.972 265.991 143.932 262.363 145.746C258.736 147.559 255.321 150.12 253.187 153.641C253.081 153.854 252.867 154.175 252.761 154.388C254.574 155.668 255.855 157.695 255.641 159.936C255.108 165.164 253.614 170.179 252.547 175.193L254.254 177.647C259.482 173.593 263.43 167.832 265.031 161.43C264.924 161.857 271.966 160.576 272.499 160.363C277.727 158.442 281.035 154.175 282.955 149.16C283.062 149.053 283.062 148.84 283.169 148.733C283.382 148.52 283.809 148.52 284.129 148.626C285.943 148.946 287.863 149.053 289.677 148.413C291.811 147.666 294.372 145.532 292.985 143.398Z" fill="#FCA596"/>
</g>
<path d="M252.121 179.355C257.669 174.553 260.656 166.978 259.909 159.616C263.217 158.869 266.524 157.909 269.725 156.629C272.499 155.562 275.167 154.388 277.407 152.467C279.648 150.547 281.462 147.986 281.888 145.105C285.089 146.279 288.824 146.172 291.918 144.892C292.451 144.679 293.091 144.359 293.412 143.825C294.158 142.545 292.878 141.051 291.704 140.091C286.05 136.143 278.901 134.649 272.073 135.503C269.405 135.823 266.738 136.463 264.497 138.064C262.363 139.557 260.763 141.691 259.162 143.825C254.788 149.693 250.307 156.095 249.88 163.35C249.56 167.832 250.84 172.419 250.093 176.794" fill="#A02A1B"/>
<path d="M245.399 189.491C249.133 193.118 254.574 193.652 257.562 190.664C260.443 187.677 259.803 182.235 256.068 178.608C252.334 174.98 246.893 174.447 243.905 177.434C240.918 180.422 241.664 185.756 245.399 189.491Z" fill="#FCA596"/>
<path d="M253.508 189.704C254.041 185.116 251.054 181.168 246.466 180.528C246.039 180.422 246.146 179.781 246.679 179.781C251.587 180.528 254.788 184.796 254.254 189.704C254.148 190.131 253.401 190.131 253.508 189.704Z" fill="#C1756B"/>
<path d="M251.054 182.449C250.307 184.156 250.734 186.076 252.121 187.357C252.441 187.677 251.907 188.21 251.587 187.89C249.987 186.396 249.56 184.049 250.413 182.129C250.627 181.595 251.267 182.022 251.054 182.449Z" fill="#C1756B"/>
<path d="M357.322 314.857C357.535 314.217 357.535 313.577 357.535 312.83C357.535 307.495 352.094 303.121 345.479 303.121C338.757 303.121 333.422 307.495 333.422 312.83C333.422 313.47 333.529 314.217 333.636 314.857H357.322Z" fill="#A8DCE7"/>
<path d="M345.905 312.617V303.228C345.692 303.228 345.585 303.228 345.372 303.228V312.617H345.905Z" fill="white"/>
<g opacity="0.25">
<path opacity="0.25" d="M342.598 289.784C338.437 287.01 333.849 284.556 329.261 282.529C319.552 278.154 309.309 274.74 298.853 272.393C288.397 270.152 277.727 268.872 267.591 265.778C257.455 262.577 247.426 257.242 241.451 248.386C235.69 239.851 234.196 228.968 235.263 218.725H227.901C220.966 218.725 215.417 224.273 215.417 231.208V292.131C215.417 299.066 220.966 304.615 227.901 304.615H330.115C337.05 304.615 342.598 299.066 342.598 292.131V289.784Z" fill="#A8DCE7"/>
</g>
<path d="M288.29 254.361C288.077 252.547 286.583 251.16 284.769 251.16H279.434H278.688H273.353C271.539 251.16 269.939 252.547 269.832 254.361L263.964 314.751H278.794H279.541H294.372L288.29 254.361Z" fill="#E4F6F9"/>
<path d="M279.008 273.46C281.365 273.46 283.276 271.549 283.276 269.192C283.276 266.835 281.365 264.924 279.008 264.924C276.651 264.924 274.74 266.835 274.74 269.192C274.74 271.549 276.651 273.46 279.008 273.46Z" fill="#A8DCE7"/>
<path d="M546.919 257.451H508.189C506.375 257.451 504.988 258.945 505.201 260.759L509.683 311.226C509.789 312.826 511.176 314 512.67 314H542.758H551.08H581.168C582.769 314 584.049 312.826 584.156 311.226L588.637 260.759C588.744 258.945 587.357 257.451 585.649 257.451H546.919Z" fill="#A8DCE7"/>
<g opacity="0.25">
<path opacity="0.25" d="M584.152 311.123L585.326 298.213C579.671 292.558 572.949 287.864 565.267 285.516C556.731 282.956 547.449 283.382 538.7 281.675C533.472 280.715 528.137 278.794 524.723 274.633C522.695 272.073 521.522 268.979 520.775 265.778C520.135 263.004 519.708 260.23 519.601 257.349H508.292C506.478 257.349 505.091 258.842 505.304 260.656L509.785 311.123C509.892 312.724 511.279 313.897 512.773 313.897H542.861H551.183H581.271C582.765 313.897 584.045 312.724 584.152 311.123Z" fill="#A8DCE7"/>
</g>
<path d="M583.622 314.537H509.683C508.829 314.537 508.082 313.791 508.082 312.937C508.082 312.083 508.829 311.336 509.683 311.336H583.622C584.476 311.336 585.223 312.083 585.223 312.937C585.223 313.897 584.476 314.537 583.622 314.537Z" fill="#91C7CE"/>
<path d="M553.747 284.556C553.747 288.29 550.76 291.385 546.919 291.385C543.185 291.385 540.091 288.397 540.091 284.556C540.091 280.822 543.078 277.727 546.919 277.727C550.76 277.727 553.747 280.822 553.747 284.556Z" fill="#EBF0F3"/>
<path d="M634.516 311.55H629.928C624.913 311.55 620.859 307.495 620.859 302.481V298.32C620.859 293.305 624.913 289.251 629.928 289.251H634.516C639.531 289.251 643.585 293.305 643.585 298.32V302.481C643.585 307.495 639.531 311.55 634.516 311.55ZM629.928 292.451C626.727 292.451 624.06 295.119 624.06 298.32V302.481C624.06 305.682 626.727 308.349 629.928 308.349H634.516C637.717 308.349 640.384 305.682 640.384 302.481V298.32C640.384 295.119 637.717 292.451 634.516 292.451H629.928Z" fill="#DBA349"/>
<path d="M622.032 281.035C614.03 281.035 607.522 282.956 607.522 285.303L610.616 313.15C610.723 314.537 611.896 315.498 613.283 315.498H629.928C631.208 315.498 632.382 314.537 632.595 313.257L636.543 285.303C636.543 282.956 630.035 281.035 622.032 281.035Z" fill="#E37263"/>
<g opacity="0.18">
<path opacity="0.18" d="M632.595 313.257L633.449 307.602C629.821 305.148 625.874 303.228 622.673 300.454C618.405 296.826 615.417 291.705 614.35 286.156C614.03 284.769 613.924 283.276 613.924 281.889C610.189 282.636 607.629 283.916 607.629 285.41L610.723 313.257C610.83 314.644 612.003 315.604 613.39 315.604H630.035C631.315 315.498 632.382 314.537 632.595 313.257Z" fill="#E37263"/>
</g>
<path d="M634.409 286.37C634.409 288.184 628.861 289.677 622.032 289.677C615.204 289.677 609.656 288.184 609.656 286.37C609.656 284.556 615.204 283.062 622.032 283.062C628.861 283.062 634.409 284.556 634.409 286.37Z" fill="#DBA349"/>
<path d="M610.723 287.65C612.644 288.824 617.018 289.677 622.033 289.677C627.154 289.677 631.422 288.824 633.342 287.65C631.422 286.477 627.047 285.623 622.033 285.623C616.911 285.623 612.537 286.477 610.723 287.65Z" fill="#895743"/>
<path d="M407.895 311.55H403.308C398.293 311.55 394.238 307.495 394.238 302.481V298.32C394.238 293.305 398.293 289.251 403.308 289.251H407.895C412.91 289.251 416.965 293.305 416.965 298.32V302.481C416.965 307.495 412.91 311.55 407.895 311.55ZM403.308 292.451C400.107 292.451 397.439 295.119 397.439 298.32V302.481C397.439 305.682 400.107 308.349 403.308 308.349H407.895C411.096 308.349 413.764 305.682 413.764 302.481V298.32C413.764 295.119 411.096 292.451 407.895 292.451H403.308Z" fill="#6157AA"/>
<path d="M395.412 281.035C387.41 281.035 380.902 282.956 380.902 285.303L383.996 313.15C384.102 314.537 385.276 315.498 386.663 315.498H403.308C404.588 315.498 405.762 314.537 405.975 313.257L409.923 285.303C409.923 282.956 403.414 281.035 395.412 281.035Z" fill="#E37263"/>
<g opacity="0.22">
<path opacity="0.22" d="M405.975 313.257L406.828 307.602C403.201 305.148 399.253 303.228 396.052 300.454C391.784 296.826 388.797 291.705 387.73 286.156C387.41 284.769 387.303 283.276 387.303 281.889C383.569 282.636 381.008 283.916 381.008 285.41L384.102 313.257C384.209 314.644 385.383 315.604 386.77 315.604H403.414C404.588 315.498 405.762 314.537 405.975 313.257Z" fill="#6157AA"/>
</g>
<path d="M407.682 286.37C407.682 288.184 402.134 289.677 395.305 289.677C388.477 289.677 382.929 288.184 382.929 286.37C382.929 284.556 388.477 283.062 395.305 283.062C402.134 283.062 407.682 284.556 407.682 286.37Z" fill="#6157AA"/>
<path d="M383.996 287.65C385.916 288.824 390.291 289.677 395.305 289.677C400.427 289.677 404.695 288.824 406.615 287.65C404.695 286.477 400.32 285.623 395.305 285.623C390.291 285.623 385.916 286.477 383.996 287.65Z" fill="#E37263"/>
<path d="M457.295 315.711H440.117V258.949C440.117 257.455 441.291 256.175 442.891 256.175H454.628C456.122 256.175 457.402 257.349 457.402 258.949V315.711H457.295Z" fill="#E37263"/>
<path d="M457.295 302.801H440.117V310.483H457.295V302.801Z" fill="#A02A1B"/>
<path d="M452.067 265.778C452.067 263.964 450.573 262.363 448.653 262.363C446.839 262.363 445.239 263.857 445.239 265.778C445.239 267.592 446.732 269.192 448.653 269.192C450.573 269.192 452.067 267.698 452.067 265.778Z" fill="#A02A1B"/>
<path d="M457.295 296.399H440.117V299.28H457.295V296.399Z" fill="#A02A1B"/>
<g opacity="0.12">
<path opacity="0.12" d="M541.584 246.359C546.172 246.999 550.867 247.106 555.562 246.573V239.317H541.584V246.359Z" fill="#FCA596"/>
</g>
<path d="M548.519 242.625C534.862 242.625 523.446 231.742 522.486 217.658L521.739 206.669C520.672 191.198 532.622 178.074 547.773 178.074H549.266C564.31 178.074 576.26 191.198 575.3 206.669L574.553 217.658C573.592 231.635 562.283 242.625 548.519 242.625Z" fill="#FCA596"/>
<path d="M546.386 204.641C547.133 208.802 547.879 213.07 548.52 217.231C548.733 217.018 548.946 216.805 549.16 216.591C547.453 216.058 545.639 215.418 543.932 214.884C543.505 214.777 543.185 215.204 543.292 215.524C543.825 217.765 544.679 219.899 545.959 221.926C546.279 222.459 547.239 221.926 546.812 221.392C545.639 219.472 544.892 217.445 544.252 215.311C544.038 215.524 543.825 215.738 543.612 215.951C545.319 216.484 547.133 217.125 548.84 217.658C549.267 217.765 549.587 217.338 549.48 217.018C548.733 212.857 547.986 208.589 547.346 204.428C547.239 203.681 546.172 204.001 546.386 204.641Z" fill="#BC665B"/>
<path d="M536.997 213.497C537.103 215.311 537.21 217.125 537.317 218.832C537.317 219.685 538.704 219.685 538.597 218.832C538.49 217.018 538.384 215.204 538.277 213.497C538.277 212.643 536.89 212.643 536.997 213.497Z" fill="#BC665B"/>
<path d="M560.149 213.497C560.043 215.311 559.936 217.125 559.829 218.832C559.829 219.685 558.442 219.685 558.549 218.832C558.656 217.018 558.762 215.204 558.869 213.497C558.869 212.643 560.149 212.643 560.149 213.497Z" fill="#BC665B"/>
<path d="M543.291 222.78C544.465 226.514 549.053 227.581 551.614 224.487C552.041 223.953 551.294 223.206 550.867 223.74C548.84 226.194 545.212 225.554 544.252 222.459C544.145 221.819 543.078 222.139 543.291 222.78Z" fill="#BC665B"/>
<path d="M523.02 200.907C523.98 203.788 524.62 206.775 524.727 209.763C524.833 212.75 524.193 215.844 522.806 218.512C520.352 212.857 519.818 206.348 521.206 200.374" fill="#A02A1B"/>
<path d="M573.38 201.974C571.459 207.736 571.992 214.351 574.66 219.792C577.434 215.418 577.541 209.869 576.367 204.855C576.26 204.535 576.26 204.215 576.367 203.895" fill="#4E4E7C"/>
<path opacity="0.12" d="M541.051 225.554C541.051 227.901 538.49 229.821 535.182 229.821C531.875 229.821 529.314 227.901 529.314 225.554C529.314 223.206 531.875 221.286 535.182 221.286C538.49 221.286 541.051 223.206 541.051 225.554Z" fill="#FCA596"/>
<path opacity="0.12" d="M560.149 229.821C563.39 229.821 566.018 227.911 566.018 225.554C566.018 223.197 563.39 221.286 560.149 221.286C556.908 221.286 554.281 223.197 554.281 225.554C554.281 227.911 556.908 229.821 560.149 229.821Z" fill="#FCA596"/>
<path d="M582.769 227.261C579.034 230.888 573.593 231.422 570.605 228.434C567.725 225.447 568.365 220.005 572.099 216.378C575.834 212.75 581.275 212.217 584.263 215.204C587.25 218.298 586.503 223.633 582.769 227.261Z" fill="#FCA596"/>
<path d="M575.727 227.581C575.193 222.993 578.181 219.045 582.769 218.405C583.195 218.298 583.089 217.658 582.555 217.658C577.647 218.405 574.447 222.673 574.98 227.581C575.087 228.008 575.833 228.008 575.727 227.581Z" fill="#BC665B"/>
<path d="M578.181 220.326C578.928 222.033 578.501 223.953 577.114 225.234C576.794 225.554 577.328 226.087 577.648 225.767C579.248 224.273 579.675 221.926 578.821 220.005C578.608 219.472 577.968 219.899 578.181 220.326Z" fill="#BC665B"/>
<path d="M515.444 227.261C519.179 230.888 524.62 231.422 527.608 228.434C530.488 225.447 529.848 220.005 526.114 216.378C522.38 212.75 516.938 212.217 513.951 215.204C510.963 218.298 511.603 223.633 515.444 227.261Z" fill="#FCA596"/>
<path d="M522.379 227.581C522.913 222.993 519.925 219.045 515.337 218.405C514.911 218.298 515.017 217.658 515.551 217.658C520.459 218.405 523.66 222.673 523.126 227.581C523.126 228.008 522.379 228.008 522.379 227.581Z" fill="#BC665B"/>
<path d="M520.032 220.326C519.285 222.033 519.712 223.953 521.099 225.234C521.419 225.554 520.886 226.087 520.566 225.767C518.965 224.273 518.538 221.926 519.392 220.005C519.605 219.472 520.245 219.899 520.032 220.326Z" fill="#BC665B"/>
<path d="M547.239 174.873C537.85 175.407 528.461 180.208 523.446 187.783C522.379 189.384 518.325 202.721 520.352 203.361C523.34 204.321 526.434 204.748 529.528 204.748C530.595 201.867 531.555 198.986 532.622 195.999C532.089 198.773 531.982 201.547 532.302 204.321C532.302 204.641 532.409 204.961 532.622 205.175C532.836 205.388 533.156 205.388 533.369 205.388C538.064 205.922 542.865 206.028 547.559 205.815C548.2 202.401 548.84 198.986 549.587 195.466C550.013 198.773 550.44 202.187 550.76 205.495C554.921 205.602 558.976 205.708 563.137 205.922C563.35 203.148 563.35 200.267 563.137 197.493C563.99 200.267 564.844 203.041 565.591 205.815C569.432 205.708 573.38 205.815 577.221 205.388C577.434 205.388 577.114 199.413 577.007 198.773C576.58 196.533 575.834 194.079 574.873 192.051C573.06 188.104 570.285 184.689 567.085 181.809C565.484 180.315 563.884 178.928 562.07 177.861C557.695 175.514 552.467 174.553 547.239 174.873Z" fill="#A02A1B"/>
<path d="M520.779 476.287C520.779 475.967 520.672 475.54 520.672 475.114C520.672 467.965 526.434 462.204 533.582 462.204C540.731 462.204 546.492 467.965 546.492 475.114C546.492 475.54 546.492 475.861 546.386 476.287H520.779Z" fill="#E37263"/>
<path d="M521.953 478.955H545.425C547.133 478.955 548.52 477.568 548.52 475.86C548.52 474.153 547.133 472.766 545.425 472.766H521.953C520.245 472.766 518.858 474.153 518.858 475.86C518.858 477.568 520.245 478.955 521.953 478.955Z" fill="#E37263"/>
<path d="M665.351 141.264H620.966C609.229 141.264 599.627 150.76 599.627 162.603V180.315C599.627 190.664 606.989 199.2 616.698 201.227L617.658 211.577L628.328 201.654H665.244C676.98 201.654 686.583 192.158 686.583 180.315V162.603C686.583 150.76 677.087 141.264 665.351 141.264Z" fill="#A02A1B"/>
<path d="M469.885 116.404H506.695C516.511 116.404 524.406 124.3 524.406 134.116V148.84C524.406 157.375 518.325 164.524 510.323 166.124L509.469 174.767L500.613 166.551H469.992C460.176 166.551 452.281 158.656 452.281 148.84V134.116C452.281 124.407 460.176 116.404 469.885 116.404Z" fill="#E37263"/>
<path d="M191.841 103.364C194.034 94.194 188.378 84.9826 179.208 82.7896C170.038 80.5966 160.827 86.2525 158.634 95.4223C156.441 104.592 162.096 113.804 171.266 115.997C180.436 118.19 189.648 112.534 191.841 103.364Z" fill="#E37263"/>
<g opacity="0.25">
<path opacity="0.25" d="M183.409 114.377C180.422 113.417 177.647 112.137 174.98 110.536C172.846 109.256 170.712 107.655 169.325 105.522C167.618 102.961 166.978 99.76 166.871 96.6658C166.765 91.9712 167.938 87.17 170.285 83.0089C163.244 85.1428 158.122 91.6512 158.122 99.3332C158.122 108.722 165.804 116.404 175.193 116.404C178.181 116.511 180.955 115.658 183.409 114.377Z" fill="#E37263"/>
</g>
<path d="M176.154 0H174.126V65.1908H176.154V0Z" fill="#A02A1B"/>
<path d="M181.595 65.1907H168.792V60.3895C168.792 56.8685 171.672 53.9878 175.193 53.9878C178.714 53.9878 181.595 56.8685 181.595 60.3895V65.1907Z" fill="#363651"/>
<path d="M212.43 101.467V95.3855C212.43 74.7933 195.786 58.1489 175.193 58.1489C154.601 58.1489 137.957 74.7933 137.957 95.3855V101.467H212.43Z" fill="#A02A1B"/>
<g opacity="0.17">
<path opacity="0.17" d="M163.35 77.9942C168.045 69.5653 174.873 63.2702 182.875 58.8957C180.421 58.3623 177.861 58.1489 175.193 58.1489C154.601 58.1489 137.957 74.7933 137.957 95.3855V101.467H156.735C157.055 92.9315 159.936 84.0758 163.35 77.9942Z" fill="#003366"/>
</g>
<g opacity="0.34">
<path opacity="0.34" d="M193.865 70.0987C197.706 73.1929 200.694 77.0339 202.827 81.5151C203.681 83.3289 206.455 81.7285 205.601 79.9147C203.361 75.2201 200.16 71.1657 196.212 67.8581C194.505 66.4711 192.265 68.7117 193.865 70.0987Z" fill="white"/>
</g>
<path d="M416.861 102.264C418.456 92.9715 412.216 84.1453 402.924 82.5501C393.632 80.9548 384.805 87.1946 383.21 96.487C381.615 105.779 387.855 114.606 397.147 116.201C406.439 117.796 415.266 111.556 416.861 102.264Z" fill="#E37263"/>
<g opacity="0.25">
<path opacity="0.25" d="M408.215 114.377C405.228 113.417 402.454 112.137 399.786 110.536C397.653 109.256 395.519 107.655 394.132 105.522C392.425 102.961 391.784 99.76 391.678 96.6658C391.571 91.9712 392.745 87.17 395.092 83.0089C388.05 85.1428 382.929 91.6512 382.929 99.3332C382.929 108.722 390.611 116.404 400 116.404C402.987 116.511 405.761 115.658 408.215 114.377Z" fill="#E37263"/>
</g>
<path d="M400.96 0H398.933V65.1908H400.96V0Z" fill="#A02A1B"/>
<path d="M406.402 65.1907H393.598V60.3895C393.598 56.8685 396.479 53.9878 400 53.9878C403.521 53.9878 406.402 56.8685 406.402 60.3895V65.1907Z" fill="#363651"/>
<path d="M437.237 101.467V95.3855C437.237 74.7933 420.592 58.1489 400 58.1489C379.408 58.1489 362.763 74.7933 362.763 95.3855V101.467H437.237Z" fill="#A02A1B"/>
<g opacity="0.17">
<path opacity="0.17" d="M388.157 77.9942C392.851 69.5653 399.68 63.2702 407.682 58.8957C405.228 58.3623 402.667 58.1489 400 58.1489C379.408 58.1489 362.763 74.7933 362.763 95.3855V101.467H381.542C381.862 92.9315 384.743 84.0758 388.157 77.9942Z" fill="#003366"/>
</g>
<g opacity="0.34">
<path opacity="0.34" d="M418.672 70.0987C422.513 73.1929 425.5 77.0339 427.634 81.5151C428.488 83.3289 431.262 81.7285 430.408 79.9147C428.168 75.2201 424.967 71.1657 421.019 67.8581C419.312 66.4711 417.071 68.7117 418.672 70.0987Z" fill="white"/>
</g>
<path d="M639.159 108.654C644.285 100.741 642.026 90.171 634.112 85.0449C626.199 79.9188 615.629 82.178 610.503 90.0911C605.377 98.0042 607.636 108.575 615.549 113.701C623.462 118.827 634.033 116.567 639.159 108.654Z" fill="#E37263"/>
<g opacity="0.25">
<path opacity="0.25" d="M632.915 114.377C629.928 113.417 627.154 112.137 624.486 110.536C622.352 109.256 620.219 107.655 618.832 105.522C617.124 102.961 616.484 99.76 616.378 96.6658C616.271 91.9712 617.445 87.17 619.792 83.0089C612.75 85.1428 607.628 91.6512 607.628 99.3332C607.628 108.722 615.311 116.404 624.7 116.404C627.687 116.511 630.568 115.658 632.915 114.377Z" fill="#E37263"/>
</g>
<path d="M625.767 0H623.74V65.1908H625.767V0Z" fill="#A02A1B"/>
<path d="M631.208 65.1907H618.405V60.3895C618.405 56.8685 621.286 53.9878 624.807 53.9878C628.328 53.9878 631.208 56.8685 631.208 60.3895V65.1907Z" fill="#363651"/>
<path d="M662.043 101.467V95.3855C662.043 74.7933 645.399 58.1489 624.807 58.1489C604.215 58.1489 587.57 74.7933 587.57 95.3855V101.467H662.043Z" fill="#A02A1B"/>
<g opacity="0.17">
<path opacity="0.17" d="M612.964 77.9942C617.658 69.5653 624.487 63.2702 632.489 58.8957C630.035 58.3623 627.474 58.1489 624.807 58.1489C604.215 58.1489 587.57 74.7933 587.57 95.3855V101.467H606.348C606.669 92.9315 609.443 84.0758 612.964 77.9942Z" fill="#003366"/>
</g>
<g opacity="0.34">
<path opacity="0.34" d="M643.372 70.0987C647.213 73.1929 650.2 77.0339 652.334 81.5151C653.187 83.3289 655.961 81.7285 655.108 79.9147C652.867 75.2201 649.667 71.1657 645.719 67.8581C644.119 66.4711 641.771 68.7117 643.372 70.0987Z" fill="white"/>
</g>
</g>
<defs>
<clipPath id="clip0">
<rect width="800" height="507.122" fill="white"/>
</clipPath>
</defs>
</svg>
